<?xml version="1.0" encoding="utf-8"?>
<!-- Generator: Adobe Illustrator 26.0.2, SVG Export Plug-In . SVG Version: 6.00 Build 0)  -->
<svg version="1.1" id="background" xmlns="http://www.w3.org/2000/svg" xmlns:xlink="http://www.w3.org/1999/xlink" x="275px" y="180px"
	 viewBox="0 0 275 180.2" style="enable-background:new 0 0 265.1 172.8;" xml:space="preserve">
<style type="text/css">
	.Arched_x0020_Green{fill:url(#SVGID_1_);stroke:#FFFFFF;stroke-width:0.25;stroke-miterlimit:1;}
	.st0{fill:#FFFFFF;}
	.st1{fill:#FFFFFF;}
</style>
<linearGradient id="SVGID_1_" gradientUnits="userSpaceOnUse" x1="-196.3912" y1="372.5843" x2="-195.6841" y2="371.8771">
	<stop  offset="0" style="stop-color:#FFFFFF"/>
	<stop  offset="0.9831" style="stop-color:#FFFFFF"/>
</linearGradient>
<path class="st0" d="M108.3,105.2"/>
<polygon class="st1" points="49.9,74.6 70.7,74.6 60.4,45.7 "/>
<path class="st1" d="M0.7-0.9v174.2h2.5c16.9-10,69.6-36.6,130-45.8c69.8-10.7,110.3-8.8,133.5-8.4v-120H0.7z M82.7,110l-7.2-16.7
	H45.2L38.6,110H13.1L47,14.6h27.7l33.1,95.4H82.7z M175.1,109.6h-59.5V14.9h24v74.4h35.5V109.6z M248.4,46.8c0,0-7.4-9.4-19.4-9.4
	c-14.8,0-26.4,9.8-26.4,25.1c0,8.4,7,25.5,24.6,25.5c14.1,0,21.1-9.4,21.1-9.4v26.9c-4.3,2.4-10.8,5.4-22.1,5.4
	c-32.5,0-48.3-20.8-48.3-47.7c0-32,22-49.3,50.4-49.3c11,0,16.6,3.3,20.1,5.4V46.8z"/>
<path class="st1" d="M41.4,173.3h225.2v-49.6C240.5,123,113.4,122.5,41.4,173.3z"/>
</svg>
