<svg width="266" height="175" viewBox="0 0 266 175" fill="none" xmlns="http://www.w3.org/2000/svg">
<path d="M49.2002 75.5001H70.0002L59.7002 46.6001L49.2002 75.5001Z" fill="#0C592C"/>
<path d="M0 0V174.2H2.5C19.4 164.2 72.1 137.6 132.5 128.4C202.3 117.7 242.8 119.6 266 120V0H0ZM82 110.9L74.8 94.2H44.5L37.9 110.9H12.4L46.3 15.5H74L107.1 110.9H82ZM174.4 110.5H114.9V15.8H138.9V90.2H174.4V110.5ZM247.7 47.7C247.7 47.7 240.3 38.3 228.3 38.3C213.5 38.3 201.9 48.1 201.9 63.4C201.9 71.8 208.9 88.9 226.5 88.9C240.6 88.9 247.6 79.5 247.6 79.5V106.4C243.3 108.8 236.8 111.8 225.5 111.8C193 111.8 177.2 91 177.2 64.1C177.2 32.1 199.2 14.8 227.6 14.8C238.6 14.8 244.2 18.1 247.7 20.2V47.7Z" fill="#0C592C"/>
<path d="M40.7002 174.2H265.9V124.6C239.8 123.9 112.7 123.4 40.7002 174.2Z" fill="#0C592C"/>
</svg>
