<svg width="392" height="432" viewBox="0 0 392 432" fill="none" xmlns="http://www.w3.org/2000/svg">
    <rect x="0.5" y="0.5" width="391" height="431" fill="white" stroke="black" />
    <path
        d="M234.984 419H228.552V407.576H229.992V417.72H234.984V419ZM237.727 414.696C237.727 416.728 238.495 417.992 240.239 417.992C241.967 417.992 242.751 416.728 242.751 414.696C242.751 412.664 241.967 411.448 240.223 411.448C238.479 411.448 237.727 412.664 237.727 414.696ZM244.207 414.696C244.207 417.256 242.927 419.16 240.207 419.16C237.951 419.16 236.271 417.544 236.271 414.696C236.271 411.864 237.775 410.264 240.255 410.264C242.559 410.264 244.207 411.864 244.207 414.696ZM246.55 411.512H245.334V410.84L246.566 410.28L247.126 408.456H247.958V410.424H250.438V411.512H247.958V416.472C247.958 417.512 248.518 418.008 249.302 418.008C249.734 418.008 250.23 417.944 250.502 417.832V418.904C250.198 419.048 249.574 419.16 249.062 419.16C247.734 419.16 246.55 418.584 246.55 416.504V411.512ZM257.784 406.84V419H256.376V406.84H257.784ZM261.221 407.208C261.653 407.208 262.037 407.48 262.037 408.104C262.037 408.728 261.653 409 261.221 409C260.757 409 260.389 408.728 260.389 408.104C260.389 407.48 260.757 407.208 261.221 407.208ZM260.501 410.424H261.909V419H260.501V410.424ZM264.626 410.424H265.762L265.97 411.592H266.05C266.61 410.696 267.666 410.264 268.754 410.264C270.802 410.264 271.858 411.224 271.858 413.416V419H270.466V413.512C270.466 412.136 269.826 411.448 268.546 411.448C266.642 411.448 266.034 412.552 266.034 414.552V419H264.626V410.424ZM277.812 411.416C276.468 411.416 275.668 412.328 275.524 413.864H279.892C279.876 412.408 279.236 411.416 277.812 411.416ZM277.828 410.264C280.02 410.264 281.364 411.8 281.364 414.136V414.984H275.492C275.54 416.92 276.516 417.96 278.228 417.96C279.316 417.96 280.084 417.752 280.98 417.368V418.6C280.1 418.984 279.332 419.16 278.164 419.16C275.7 419.16 274.036 417.656 274.036 414.776C274.036 411.976 275.556 410.264 277.828 410.264Z"
        fill="black" />
    <path
        d="M47.032 331.944C47.032 334.296 45.016 335.16 42.952 335.16C41.672 335.16 40.536 334.952 39.816 334.616V333.24C40.584 333.576 41.8 333.912 43.016 333.912C44.696 333.912 45.592 333.208 45.592 332.072C45.592 330.936 44.968 330.488 42.904 329.72C40.936 329.016 39.96 328.104 39.96 326.328C39.96 324.536 41.448 323.416 43.608 323.416C44.84 323.416 45.88 323.672 46.76 324.056L46.312 325.288C45.528 324.952 44.552 324.68 43.576 324.68C42.152 324.68 41.416 325.336 41.416 326.344C41.416 327.496 42.056 327.976 43.912 328.648C45.928 329.384 47.032 330.152 47.032 331.944ZM52.4373 327.416C51.0933 327.416 50.2933 328.328 50.1493 329.864H54.5173C54.5013 328.408 53.8613 327.416 52.4373 327.416ZM52.4533 326.264C54.6453 326.264 55.9893 327.8 55.9893 330.136V330.984H50.1173C50.1653 332.92 51.1413 333.96 52.8533 333.96C53.9413 333.96 54.7093 333.752 55.6053 333.368V334.6C54.7253 334.984 53.9573 335.16 52.7893 335.16C50.3253 335.16 48.6613 333.656 48.6613 330.776C48.6613 327.976 50.1813 326.264 52.4533 326.264ZM58.2845 327.512H57.0685V326.84L58.3005 326.28L58.8605 324.456H59.6925V326.424H62.1725V327.512H59.6925V332.472C59.6925 333.512 60.2525 334.008 61.0365 334.008C61.4685 334.008 61.9645 333.944 62.2365 333.832V334.904C61.9325 335.048 61.3085 335.16 60.7965 335.16C59.4685 335.16 58.2845 334.584 58.2845 332.504V327.512ZM65.3618 330.664V330.728C65.3618 332.84 65.9378 333.992 67.8098 333.992C69.3458 333.992 70.0978 332.824 70.0978 330.696C70.0978 328.536 69.3298 327.448 67.7778 327.448C65.9378 327.448 65.3618 328.472 65.3618 330.664ZM65.2498 333.912L64.9618 335H63.9538V322.84H65.3618V325.8C65.3618 326.52 65.3298 327.192 65.2818 327.56H65.3618C65.8578 326.84 66.6738 326.28 68.0178 326.28C70.1458 326.28 71.5538 327.768 71.5538 330.712C71.5538 333.656 70.1298 335.16 68.0178 335.16C66.6738 335.16 65.8578 334.6 65.3618 333.912H65.2498ZM78.7255 331.576V330.808L77.4615 330.856C76.2615 330.904 74.6295 331.08 74.6295 332.632C74.6295 333.592 75.2855 334.024 76.1975 334.024C77.7335 334.024 78.7255 333.144 78.7255 331.576ZM77.0455 326.28C79.1415 326.28 80.1175 327.16 80.1175 329.16V335H79.0935L78.8215 333.784H78.7575C77.9415 334.808 77.1895 335.16 75.8775 335.16C74.2455 335.16 73.1735 334.296 73.1735 332.616C73.1735 330.904 74.4855 329.96 77.2855 329.88L78.7415 329.832V329.32C78.7415 327.896 78.1015 327.416 76.9655 327.416C76.0695 327.416 75.2535 327.736 74.5495 328.072L74.1175 327.016C74.8695 326.616 75.9415 326.28 77.0455 326.28ZM86.2063 335.16C83.9183 335.16 82.2863 333.816 82.2863 330.76C82.2863 327.592 83.9983 326.264 86.3023 326.264C87.1503 326.264 88.0463 326.472 88.5583 326.728L88.1263 327.896C87.6143 327.704 86.8623 327.496 86.2703 327.496C84.5903 327.496 83.7423 328.584 83.7423 330.744C83.7423 332.808 84.5743 333.944 86.1903 333.944C87.1023 333.944 87.8223 333.72 88.4143 333.448V334.696C87.8383 335 87.1823 335.16 86.2063 335.16ZM90.4538 335V322.84H91.8458V329.192C91.8458 329.528 91.7978 330.184 91.7818 330.584H91.8458C92.0218 330.344 92.5978 329.624 92.8698 329.32L95.6058 326.424H97.2538L93.7818 330.088L97.4938 335H95.7978L92.8218 331L91.8458 331.848V335H90.4538ZM102.693 331.528V330.392H110.021V331.528H102.693ZM102.693 328.344V327.208H110.021V328.344H102.693ZM119.733 333.992C121.541 333.992 122.197 333 122.197 331V330.744C122.197 328.936 121.829 327.432 119.717 327.432C118.197 327.432 117.445 328.728 117.445 330.76C117.445 332.808 118.197 333.992 119.733 333.992ZM119.509 335.16C117.381 335.16 115.989 333.672 115.989 330.728C115.989 327.784 117.397 326.264 119.525 326.264C120.853 326.264 121.653 326.824 122.181 327.528H122.277C122.245 327.288 122.181 326.536 122.181 326.264V322.84H123.589V335H122.453L122.245 333.848H122.181C121.669 334.568 120.853 335.16 119.509 335.16ZM127.033 323.208C127.465 323.208 127.849 323.48 127.849 324.104C127.849 324.728 127.465 325 127.033 325C126.569 325 126.201 324.728 126.201 324.104C126.201 323.48 126.569 323.208 127.033 323.208ZM126.313 326.424H127.721V335H126.313V326.424ZM136.022 332.632C136.022 334.296 134.694 335.16 132.598 335.16C131.398 335.16 130.566 334.952 129.91 334.616V333.336C130.598 333.672 131.622 334.024 132.63 334.024C134.054 334.024 134.662 333.528 134.662 332.76C134.662 332.12 134.246 331.736 132.55 331.096C130.886 330.456 129.894 329.944 129.894 328.536C129.894 327.08 131.19 326.264 133.11 326.264C134.15 326.264 135.062 326.504 135.846 326.84L135.366 327.96C134.646 327.656 133.846 327.416 133.014 327.416C131.862 327.416 131.238 327.816 131.238 328.456C131.238 329.176 131.798 329.48 133.446 330.088C135.078 330.696 136.022 331.24 136.022 332.632ZM138.206 327.512H136.99V326.84L138.222 326.28L138.782 324.456H139.614V326.424H142.094V327.512H139.614V332.472C139.614 333.512 140.174 334.008 140.958 334.008C141.39 334.008 141.886 333.944 142.158 333.832V334.904C141.854 335.048 141.23 335.16 140.718 335.16C139.39 335.16 138.206 334.584 138.206 332.504V327.512ZM148.804 331.576V330.808L147.54 330.856C146.34 330.904 144.708 331.08 144.708 332.632C144.708 333.592 145.364 334.024 146.276 334.024C147.812 334.024 148.804 333.144 148.804 331.576ZM147.124 326.28C149.22 326.28 150.196 327.16 150.196 329.16V335H149.172L148.9 333.784H148.836C148.02 334.808 147.268 335.16 145.956 335.16C144.324 335.16 143.252 334.296 143.252 332.616C143.252 330.904 144.564 329.96 147.364 329.88L148.82 329.832V329.32C148.82 327.896 148.18 327.416 147.044 327.416C146.148 327.416 145.332 327.736 144.628 328.072L144.196 327.016C144.948 326.616 146.02 326.28 147.124 326.28ZM152.844 326.424H153.98L154.188 327.592H154.268C154.828 326.696 155.884 326.264 156.972 326.264C159.02 326.264 160.076 327.224 160.076 329.416V335H158.684V329.512C158.684 328.136 158.044 327.448 156.764 327.448C154.86 327.448 154.252 328.552 154.252 330.552V335H152.844V326.424ZM166.175 335.16C163.887 335.16 162.255 333.816 162.255 330.76C162.255 327.592 163.967 326.264 166.271 326.264C167.119 326.264 168.015 326.472 168.527 326.728L168.095 327.896C167.583 327.704 166.831 327.496 166.239 327.496C164.559 327.496 163.711 328.584 163.711 330.744C163.711 332.808 164.543 333.944 166.159 333.944C167.071 333.944 167.791 333.72 168.383 333.448V334.696C167.807 335 167.151 335.16 166.175 335.16ZM173.719 327.416C172.375 327.416 171.575 328.328 171.431 329.864H175.799C175.783 328.408 175.143 327.416 173.719 327.416ZM173.735 326.264C175.927 326.264 177.271 327.8 177.271 330.136V330.984H171.399C171.447 332.92 172.423 333.96 174.135 333.96C175.223 333.96 175.991 333.752 176.887 333.368V334.6C176.007 334.984 175.239 335.16 174.071 335.16C171.607 335.16 169.943 333.656 169.943 330.776C169.943 327.976 171.463 326.264 173.735 326.264ZM182.49 327.512V326.856L183.994 326.376V325.88C183.994 323.656 185.002 322.76 186.778 322.76C187.434 322.76 188.042 322.904 188.442 323.048L188.074 324.152C187.738 324.04 187.258 323.912 186.794 323.912C185.85 323.912 185.402 324.52 185.402 325.864V326.424H187.562V327.512H185.402V335H183.994V327.512H182.49ZM193.11 326.264C193.43 326.264 193.814 326.296 194.118 326.36L193.942 327.656C193.67 327.592 193.286 327.544 193.014 327.544C191.686 327.544 190.518 328.696 190.518 330.424V335H189.11V326.424H190.262L190.422 327.992H190.486C191.014 327.048 191.91 326.264 193.11 326.264ZM196.383 330.696C196.383 332.728 197.151 333.992 198.895 333.992C200.623 333.992 201.407 332.728 201.407 330.696C201.407 328.664 200.623 327.448 198.879 327.448C197.135 327.448 196.383 328.664 196.383 330.696ZM202.863 330.696C202.863 333.256 201.583 335.16 198.863 335.16C196.607 335.16 194.927 333.544 194.927 330.696C194.927 327.864 196.431 326.264 198.911 326.264C201.215 326.264 202.863 327.864 202.863 330.696ZM205.094 335V326.424H206.23L206.438 327.592H206.518C207.046 326.696 208.022 326.264 209.046 326.264C210.39 326.264 211.27 326.744 211.67 327.704H211.75C212.326 326.728 213.366 326.264 214.502 326.264C216.438 326.264 217.398 327.224 217.398 329.416V335H216.006V329.48C216.006 328.12 215.43 327.448 214.262 327.448C212.598 327.448 211.942 328.424 211.942 330.264V335H210.55V329.48C210.55 328.12 209.958 327.448 208.79 327.448C207.062 327.448 206.502 328.552 206.502 330.552V335H205.094ZM224.316 327.512H223.1V326.84L224.332 326.28L224.892 324.456H225.724V326.424H228.204V327.512H225.724V332.472C225.724 333.512 226.284 334.008 227.068 334.008C227.5 334.008 227.996 333.944 228.268 333.832V334.904C227.964 335.048 227.34 335.16 226.828 335.16C225.5 335.16 224.316 334.584 224.316 332.504V327.512ZM229.985 322.84H231.393V326.408C231.393 326.84 231.361 327.24 231.313 327.608H231.409C231.969 326.728 232.977 326.28 234.081 326.28C236.145 326.28 237.217 327.224 237.217 329.416V335H235.825V329.512C235.825 328.136 235.185 327.448 233.905 327.448C231.985 327.448 231.393 328.568 231.393 330.568V335H229.985V322.84ZM243.172 327.416C241.828 327.416 241.028 328.328 240.884 329.864H245.252C245.236 328.408 244.596 327.416 243.172 327.416ZM243.188 326.264C245.38 326.264 246.724 327.8 246.724 330.136V330.984H240.852C240.9 332.92 241.876 333.96 243.588 333.96C244.676 333.96 245.444 333.752 246.34 333.368V334.6C245.46 334.984 244.692 335.16 243.524 335.16C241.06 335.16 239.396 333.656 239.396 330.776C239.396 327.976 240.916 326.264 243.188 326.264ZM254.471 322.84V335H253.063V322.84H254.471ZM258.164 330.696C258.164 332.728 258.932 333.992 260.676 333.992C262.404 333.992 263.188 332.728 263.188 330.696C263.188 328.664 262.404 327.448 260.66 327.448C258.916 327.448 258.164 328.664 258.164 330.696ZM264.644 330.696C264.644 333.256 263.364 335.16 260.644 335.16C258.388 335.16 256.708 333.544 256.708 330.696C256.708 327.864 258.212 326.264 260.692 326.264C262.996 326.264 264.644 327.864 264.644 330.696ZM266.988 327.512H265.772V326.84L267.004 326.28L267.564 324.456H268.396V326.424H270.876V327.512H268.396V332.472C268.396 333.512 268.956 334.008 269.74 334.008C270.172 334.008 270.668 333.944 270.94 333.832V334.904C270.636 335.048 270.012 335.16 269.5 335.16C268.172 335.16 266.988 334.584 266.988 332.504V327.512ZM278.221 322.84V335H276.813V322.84H278.221ZM281.658 323.208C282.09 323.208 282.474 323.48 282.474 324.104C282.474 324.728 282.09 325 281.658 325C281.194 325 280.826 324.728 280.826 324.104C280.826 323.48 281.194 323.208 281.658 323.208ZM280.938 326.424H282.346V335H280.938V326.424ZM285.063 326.424H286.199L286.407 327.592H286.487C287.047 326.696 288.103 326.264 289.191 326.264C291.239 326.264 292.295 327.224 292.295 329.416V335H290.903V329.512C290.903 328.136 290.263 327.448 288.983 327.448C287.079 327.448 286.471 328.552 286.471 330.552V335H285.063V326.424ZM298.25 327.416C296.906 327.416 296.106 328.328 295.962 329.864H300.33C300.314 328.408 299.674 327.416 298.25 327.416ZM298.266 326.264C300.458 326.264 301.802 327.8 301.802 330.136V330.984H295.93C295.978 332.92 296.954 333.96 298.666 333.96C299.754 333.96 300.522 333.752 301.418 333.368V334.6C300.538 334.984 299.77 335.16 298.602 335.16C296.138 335.16 294.474 333.656 294.474 330.776C294.474 327.976 295.994 326.264 298.266 326.264Z"
        fill="black" />
    <path
        d="M22 282.992L16.2265 292.992H27.7735L22 282.992ZM22 429.006L27.7735 419.006H16.2265L22 429.006ZM21 291.992L21 420.006H23L23 291.992H21Z"
        fill="black" />
</svg>
    