<svg width="3" height="14" viewBox="0 0 3 14" fill="none" xmlns="http://www.w3.org/2000/svg">
<path fill-rule="evenodd" clip-rule="evenodd" d="M0 0H3V9H0V0ZM1.5 13.5C2.32843 13.5 3 12.8284 3 12C3 11.1716 2.32843 10.5 1.5 10.5C0.671573 10.5 0 11.1716 0 12C0 12.8284 0.671573 13.5 1.5 13.5ZM1.875 11.9732C1.875 12.1951 1.70711 12.375 1.5 12.375C1.29289 12.375 1.125 12.1951 1.125 11.9732C1.125 11.7513 1.29289 11.5714 1.5 11.5714C1.70711 11.5714 1.875 11.7513 1.875 11.9732ZM1.875 1.28571H1.125V7.71429H1.875V1.28571Z" fill="black"/>
</svg>
